<?xml version="1.0" encoding="utf-8"?>
<!-- Generator: Adobe Illustrator 16.0.3, SVG Export Plug-In . SVG Version: 6.00 Build 0)  -->
<!DOCTYPE svg PUBLIC "-//W3C//DTD SVG 1.1//EN" "http://www.w3.org/Graphics/SVG/1.1/DTD/svg11.dtd">
<svg version="1.1" id="Calque_1" xmlns="http://www.w3.org/2000/svg"  x="0px" y="0px"
	 width="232.741px" height="101.98px" viewBox="0 0 232.741 101.98" enable-background="new 0 0 232.741 101.98"
	 xml:space="preserve">                          
<g>
	<g>
		<rect y="26.666" fill="#726161" width="7.957" height="55.708"/>
		<path fill="#726161" d="M37.848,37.808v1.99H29.89v-1.99c0-2.652-1.327-3.979-3.979-3.979s-3.979,1.326-3.979,3.979v33.426
			c0,2.651,1.326,3.979,3.979,3.979s3.979-1.327,3.979-3.979v-1.99h7.958v1.99c0,7.958-3.979,11.937-11.938,11.937
			s-11.938-3.979-11.938-11.937V37.808c0-7.958,3.979-11.937,11.938-11.937S37.848,29.85,37.848,37.808"/>
		<path fill="#726161" d="M67.739,37.808v1.99h-7.958v-1.99c0-2.652-1.326-3.979-3.979-3.979c-2.653,0-3.979,1.326-3.979,3.979
			v33.426c0,2.651,1.326,3.979,3.979,3.979c2.652,0,3.979-1.327,3.979-3.979v-1.99h7.958v1.99c0,7.958-3.979,11.937-11.937,11.937
			c-7.959,0-11.938-3.979-11.938-11.937V37.808c0-7.958,3.979-11.937,11.938-11.937C63.76,25.871,67.739,29.85,67.739,37.808"/>
		<g>
			<g>
				<path fill="#726161" d="M147.833,36.111c-2.527,0-4.706,1.477-5.736,3.612c1.257,0.46,2.448,1.001,3.6,1.583
					c0.418-0.755,1.213-1.274,2.137-1.274c0.932,0,1.731,0.525,2.146,1.29c0.831-1.021,1.745-1.998,2.742-2.924
					C151.552,37,149.798,36.111,147.833,36.111z"/>
				<path fill="#726161" d="M132.895,34.053c-0.618,1.083-1.114,2.245-1.481,3.465c2.393,0.152,4.694,0.526,6.895,1.071
					c1.536-3.753,5.22-6.399,9.525-6.399c3.189,0,6.038,1.451,7.927,3.727c2.91-2.111,6.291-3.86,10.014-5.154
					c0.774-0.847,0.759-2.154-0.061-2.975l-3.186-3.186c-0.842-0.842-2.205-0.842-3.048,0l-3.217,2.941
					c-1.166-0.666-2.421-1.195-3.743-1.568l-0.275-4.372c0-1.196-0.961-2.157-2.156-2.157h-4.509c-1.196,0-2.157,0.961-2.157,2.157
					l-0.273,4.372c-1.324,0.373-2.579,0.902-3.745,1.568l-3.216-2.941c-0.844-0.842-2.205-0.842-3.05,0l-3.186,3.186
					c-0.842,0.844-0.842,2.206,0,3.049L132.895,34.053z"/>
			</g>
			<path fill="#726161" d="M116.565,29.409c3.52,0,6.372-2.853,6.372-6.372s-2.853-6.373-6.372-6.373s-6.372,2.854-6.372,6.373
				S113.045,29.409,116.565,29.409z M116.565,20.586c1.354,0,2.451,1.098,2.451,2.451c0,1.353-1.098,2.451-2.451,2.451
				s-2.451-1.099-2.451-2.451C114.114,21.684,115.211,20.586,116.565,20.586z"/>
			<g>
				<path fill="#726161" d="M87.368,68.36c0.575,0.329,1.173,0.624,1.79,0.884c1.597-1.444,3.435-2.719,5.469-3.777
					c0.783-0.595,1.652-0.999,2.576-1.185c0.734-0.296,1.488-0.565,2.261-0.809c-0.031-0.137-0.054-0.276-0.082-0.413
					c-1.117,0.415-2.321,0.653-3.583,0.653c-5.685,0-10.293-4.607-10.293-10.293c0-5.685,4.608-10.293,10.293-10.293
					c3.369,0,6.35,1.625,8.227,4.126c2.615-2.96,6.136-5.43,10.267-7.194c-0.043-0.486-0.241-0.961-0.613-1.334l-3.187-3.186
					c-0.843-0.842-2.205-0.842-3.048,0l-3.216,2.941c-1.166-0.666-2.421-1.195-3.745-1.568l-0.274-4.372
					c0-1.196-0.961-2.157-2.156-2.157h-4.509c-1.196,0-2.157,0.961-2.157,2.157l-0.276,4.372c-1.322,0.373-2.578,0.902-3.744,1.568
					l-3.215-2.941c-0.843-0.842-2.205-0.842-3.049,0l-3.186,3.186c-0.843,0.844-0.843,2.206,0,3.049l2.941,3.216
					c-0.666,1.166-1.196,2.421-1.569,3.745l-4.371,0.274c-1.196,0-2.157,0.96-2.157,2.157v4.509c0,1.195,0.961,2.156,2.157,2.156
					l4.371,0.275c0.373,1.322,0.903,2.578,1.569,3.744l-2.941,3.215c-0.843,0.844-0.843,2.206,0,3.049l3.186,3.186
					c0.844,0.844,2.206,0.844,3.049,0L87.368,68.36z"/>
				<path fill="#726161" d="M95.799,47.049c-3.519,0-6.372,2.853-6.372,6.372c0,3.519,2.853,6.372,6.372,6.372
					c1.194,0,2.307-0.334,3.263-0.906c0.137-2.911,1.007-5.682,2.481-8.211C100.516,48.532,98.333,47.049,95.799,47.049z
					 M95.799,55.872c-1.353,0-2.451-1.099-2.451-2.451s1.098-2.451,2.451-2.451s2.45,1.099,2.45,2.451S97.152,55.872,95.799,55.872z
					"/>
			</g>
			<path fill="none" stroke="#726161" stroke-miterlimit="10" d="M231.992,81.125c-1.054-7.686-7.211-14.216-15.849-17.611
				c1.154-2.652,1.786-5.48,1.786-8.419c0-15.023-16.302-27.201-36.409-27.201c-5.479,0-10.665,0.913-15.323,2.533
				c-3.724,1.294-7.104,3.042-10.015,5.154c-1.077,0.781-2.098,1.605-3.039,2.48c-0.997,0.926-1.911,1.904-2.742,2.924
				c-0.448,0.552-0.876,1.115-1.272,1.691c-0.947-0.62-1.964-1.178-3.01-1.707c-1.151-0.582-2.342-1.123-3.599-1.583
				c-1.216-0.446-2.489-0.812-3.789-1.133c-1.32-0.327-2.671-0.604-4.064-0.793c-1.758-0.238-3.566-0.368-5.416-0.368
				c-6.424,0-12.374,1.503-17.271,4.058c-3.142,1.64-5.847,3.712-7.96,6.105c-0.954,1.079-1.786,2.223-2.484,3.421
				c-1.474,2.53-2.344,5.3-2.481,8.211c-0.013,0.268-0.027,0.536-0.027,0.807c0,1.145,0.126,2.268,0.347,3.367
				c0.028,0.137,0.051,0.275,0.082,0.412c-0.772,0.244-1.526,0.514-2.261,0.81c-0.924,0.186-1.793,0.59-2.576,1.185
				c-2.034,1.059-3.871,2.333-5.468,3.777c-2.833,2.561-4.903,5.66-5.918,9.082"/>
			<path fill="#726161" d="M98.684,37.731l3.186,3.186c0.844,0.843,2.207,0.843,3.049,0l3.217-2.94
				c1.166,0.666,2.421,1.195,3.745,1.567l0.101,1.605c4.896-2.555,10.847-4.058,17.271-4.058c1.85,0,3.658,0.129,5.416,0.368
				c0.606-0.843,0.536-2.018-0.222-2.777l-2.939-3.215c0.666-1.166,1.194-2.421,1.566-3.745l4.373-0.275
				c0.703,0,1.318-0.337,1.711-0.854c0.275-0.362,0.445-0.809,0.445-1.301v-4.509c0-1.197-0.961-2.157-2.156-2.157l-4.373-0.274
				c-0.372-1.324-0.9-2.579-1.566-3.745l2.939-3.216c0.843-0.843,0.843-2.206,0-3.049l-3.186-3.186
				c-0.843-0.842-2.205-0.842-3.049,0l-3.216,2.941c-1.166-0.666-2.421-1.195-3.744-1.568l-0.274-4.372
				c0-1.196-0.961-2.157-2.156-2.157h-4.509c-1.195,0-2.157,0.961-2.157,2.157l-0.274,4.372c-1.323,0.373-2.579,0.902-3.745,1.568
				l-3.217-2.941c-0.842-0.842-2.205-0.842-3.049,0l-3.186,3.186c-0.842,0.843-0.842,2.206,0,3.049l2.941,3.216
				c-0.666,1.166-1.195,2.421-1.568,3.745l-4.372,0.274c-1.196,0-2.157,0.96-2.157,2.157v4.509c0,1.195,0.961,2.156,2.157,2.156
				l4.372,0.275c0.373,1.324,0.902,2.579,1.568,3.745l-1.394,1.523l-1.548,1.692C97.842,35.526,97.842,36.888,98.684,37.731z
				 M116.565,12.744c5.686,0,10.293,4.608,10.293,10.293S122.25,33.33,116.565,33.33s-10.293-4.608-10.293-10.293
				S110.879,12.744,116.565,12.744z"/>
		</g>
	</g>
	<g>
		<path fill="#726161" d="M3.39,88.598v1.006H2.4v8.005h0.99v1.006H0.222v-1.006h0.99v-8.005h-0.99v-1.006H3.39z"/>
		<path fill="#726161" d="M12.078,98.614h-1.16v-4.079c0-1.519-0.561-2.277-1.683-2.277c-0.58,0-1.06,0.216-1.439,0.646
			s-0.569,0.974-0.569,1.631v4.079H6.068v-7.152h1.159v1.188h0.028c0.547-0.904,1.339-1.355,2.376-1.355
			c0.792,0,1.397,0.253,1.817,0.758s0.629,1.235,0.629,2.189V98.614z"/>
		<path fill="#726161" d="M21.601,98.041c0,2.627-1.272,3.939-3.818,3.939c-0.896,0-1.678-0.167-2.347-0.503v-1.146
			c0.815,0.447,1.593,0.671,2.333,0.671c1.782,0,2.672-0.937,2.672-2.808v-0.782h-0.028c-0.552,0.912-1.381,1.368-2.489,1.368
			c-0.9,0-1.625-0.317-2.174-0.953c-0.549-0.636-0.824-1.489-0.824-2.56c0-1.216,0.296-2.182,0.887-2.899
			c0.592-0.717,1.401-1.075,2.429-1.075c0.976,0,1.699,0.387,2.171,1.159h0.028v-0.991h1.16V98.041z M20.441,95.38v-1.055
			c0-0.568-0.194-1.055-0.583-1.46c-0.389-0.405-0.873-0.607-1.453-0.607c-0.716,0-1.277,0.257-1.683,0.771
			s-0.608,1.235-0.608,2.162c0,0.796,0.194,1.434,0.583,1.91c0.389,0.478,0.904,0.716,1.545,0.716c0.65,0,1.18-0.228,1.587-0.685
			C20.237,96.677,20.441,96.093,20.441,95.38z"/>
		<path fill="#726161" d="M30.925,95.324h-5.112c0.019,0.796,0.235,1.411,0.65,1.844c0.415,0.434,0.985,0.649,1.711,0.649
			c0.815,0,1.565-0.265,2.249-0.796v1.075c-0.637,0.457-1.478,0.685-2.524,0.685c-1.023,0-1.827-0.324-2.411-0.974
			c-0.584-0.65-0.877-1.563-0.877-2.742c0-1.112,0.319-2.02,0.958-2.721c0.639-0.7,1.432-1.051,2.379-1.051
			c0.947,0,1.68,0.303,2.199,0.908s0.778,1.445,0.778,2.521V95.324z M29.737,94.354c-0.005-0.661-0.166-1.176-0.484-1.544
			c-0.318-0.368-0.76-0.552-1.326-0.552c-0.547,0-1.011,0.193-1.393,0.58c-0.382,0.386-0.618,0.892-0.707,1.516H29.737z
			 M29.554,87.815l-1.853,2.291h-0.898l1.577-2.291H29.554z"/>
		<path fill="#726161" d="M39.847,98.614h-1.16v-4.079c0-1.519-0.561-2.277-1.683-2.277c-0.58,0-1.06,0.216-1.439,0.646
			s-0.569,0.974-0.569,1.631v4.079h-1.159v-7.152h1.159v1.188h0.028c0.547-0.904,1.339-1.355,2.376-1.355
			c0.792,0,1.397,0.253,1.817,0.758s0.629,1.235,0.629,2.189V98.614z"/>
		<path fill="#726161" d="M43.784,89.646c-0.208,0-0.384-0.07-0.53-0.21s-0.219-0.316-0.219-0.53c0-0.215,0.073-0.393,0.219-0.534
			c0.146-0.143,0.323-0.214,0.53-0.214c0.212,0,0.393,0.071,0.541,0.214c0.148,0.142,0.223,0.319,0.223,0.534
			c0,0.205-0.074,0.379-0.223,0.523S43.996,89.646,43.784,89.646z M44.349,98.614H43.19v-7.152h1.159V98.614z"/>
		<path fill="#726161" d="M53.674,95.324h-5.112c0.019,0.796,0.235,1.411,0.65,1.844c0.415,0.434,0.985,0.649,1.711,0.649
			c0.815,0,1.565-0.265,2.249-0.796v1.075c-0.637,0.457-1.478,0.685-2.524,0.685c-1.023,0-1.827-0.324-2.411-0.974
			c-0.584-0.65-0.877-1.563-0.877-2.742c0-1.112,0.319-2.02,0.958-2.721c0.639-0.7,1.432-1.051,2.379-1.051
			c0.947,0,1.68,0.303,2.199,0.908s0.778,1.445,0.778,2.521V95.324z M52.486,94.354c-0.005-0.661-0.166-1.176-0.484-1.544
			c-0.318-0.368-0.76-0.552-1.326-0.552c-0.547,0-1.011,0.193-1.393,0.58c-0.382,0.386-0.618,0.892-0.707,1.516H52.486z"/>
		<path fill="#726161" d="M60.361,92.621c-0.203-0.153-0.495-0.23-0.877-0.23c-0.495,0-0.908,0.23-1.241,0.691
			c-0.332,0.461-0.499,1.09-0.499,1.886v3.646h-1.159v-7.152h1.159v1.474h0.028c0.165-0.503,0.417-0.896,0.757-1.177
			c0.339-0.282,0.719-0.423,1.138-0.423c0.302,0,0.533,0.032,0.693,0.098V92.621z"/>
		<path fill="#726161" d="M63.373,89.646c-0.208,0-0.385-0.07-0.531-0.21c-0.146-0.14-0.219-0.316-0.219-0.53
			c0-0.215,0.073-0.393,0.219-0.534c0.146-0.143,0.323-0.214,0.531-0.214c0.212,0,0.392,0.071,0.54,0.214
			c0.148,0.142,0.223,0.319,0.223,0.534c0,0.205-0.074,0.379-0.223,0.523S63.584,89.646,63.373,89.646z M63.938,98.614h-1.16v-7.152
			h1.16V98.614z"/>
		<path fill="#726161" d="M73.262,95.324h-5.111c0.019,0.796,0.235,1.411,0.65,1.844c0.415,0.434,0.985,0.649,1.711,0.649
			c0.815,0,1.564-0.265,2.248-0.796v1.075c-0.636,0.457-1.478,0.685-2.523,0.685c-1.023,0-1.827-0.324-2.411-0.974
			c-0.585-0.65-0.877-1.563-0.877-2.742c0-1.112,0.319-2.02,0.958-2.721c0.639-0.7,1.432-1.051,2.379-1.051s1.681,0.303,2.199,0.908
			s0.777,1.445,0.777,2.521V95.324z M72.075,94.354c-0.005-0.661-0.166-1.176-0.484-1.544s-0.76-0.552-1.325-0.552
			c-0.547,0-1.012,0.193-1.394,0.58c-0.382,0.386-0.617,0.892-0.707,1.516H72.075z"/>
		<path fill="#726161" d="M87.479,98.614h-1.16v-1.216h-0.028c-0.537,0.922-1.367,1.383-2.488,1.383c-0.91,0-1.637-0.319-2.182-0.96
			c-0.544-0.641-0.816-1.513-0.816-2.616c0-1.183,0.302-2.13,0.905-2.843c0.604-0.712,1.407-1.068,2.411-1.068
			c0.994,0,1.718,0.387,2.17,1.159h0.028v-4.428h1.16V98.614z M86.319,95.38v-1.055c0-0.577-0.193-1.066-0.579-1.467
			c-0.387-0.4-0.877-0.601-1.471-0.601c-0.707,0-1.264,0.256-1.669,0.769c-0.405,0.512-0.608,1.22-0.608,2.123
			c0,0.824,0.194,1.476,0.584,1.952c0.389,0.478,0.91,0.716,1.565,0.716c0.646,0,1.171-0.23,1.573-0.691
			C86.118,96.665,86.319,96.083,86.319,95.38z"/>
		<path fill="#726161" d="M96.839,98.614h-1.16v-1.132h-0.028c-0.48,0.866-1.226,1.299-2.234,1.299
			c-1.725,0-2.587-1.015-2.587-3.045v-4.274h1.152v4.093c0,1.509,0.584,2.263,1.753,2.263c0.565,0,1.031-0.206,1.396-0.618
			s0.548-0.95,0.548-1.616v-4.121h1.16V98.614z"/>
		<path fill="#726161" d="M112.518,98.195c-0.749,0.391-1.683,0.586-2.8,0.586c-1.442,0-2.597-0.458-3.464-1.376
			c-0.867-0.917-1.301-2.121-1.301-3.61c0-1.603,0.487-2.896,1.463-3.884s2.213-1.481,3.712-1.481c0.962,0,1.759,0.138,2.39,0.412
			v1.251c-0.726-0.4-1.526-0.601-2.403-0.601c-1.164,0-2.108,0.384-2.832,1.152s-1.085,1.795-1.085,3.08
			c0,1.22,0.338,2.192,1.015,2.916c0.676,0.725,1.563,1.086,2.662,1.086c1.018,0,1.899-0.223,2.644-0.67V98.195z"/>
		<path fill="#726161" d="M116.745,98.614h-1.159V88.025h1.159V98.614z"/>
		<path fill="#726161" d="M123.277,98.781c-1.07,0-1.925-0.334-2.563-1.002s-0.958-1.554-0.958-2.658
			c0-1.201,0.332-2.14,0.997-2.814c0.664-0.675,1.563-1.013,2.693-1.013c1.08,0,1.922,0.328,2.528,0.984
			c0.605,0.657,0.908,1.567,0.908,2.731c0,1.141-0.326,2.055-0.979,2.741C125.25,98.438,124.375,98.781,123.277,98.781z
			 M123.361,92.258c-0.744,0-1.334,0.25-1.768,0.751c-0.434,0.5-0.65,1.19-0.65,2.071c0,0.847,0.22,1.516,0.658,2.004
			c0.438,0.489,1.024,0.733,1.76,0.733c0.75,0,1.326-0.239,1.729-0.719c0.402-0.479,0.604-1.162,0.604-2.047
			c0-0.895-0.202-1.583-0.604-2.067C124.687,92.5,124.111,92.258,123.361,92.258z"/>
		<path fill="#726161" d="M135.749,98.614h-1.16v-1.132h-0.028c-0.48,0.866-1.226,1.299-2.234,1.299
			c-1.725,0-2.587-1.015-2.587-3.045v-4.274h1.152v4.093c0,1.509,0.584,2.263,1.753,2.263c0.565,0,1.031-0.206,1.396-0.618
			s0.548-0.95,0.548-1.616v-4.121h1.16V98.614z"/>
		<path fill="#726161" d="M145.426,98.614h-1.16v-1.216h-0.028c-0.537,0.922-1.367,1.383-2.488,1.383
			c-0.91,0-1.637-0.319-2.182-0.96c-0.544-0.641-0.816-1.513-0.816-2.616c0-1.183,0.302-2.13,0.905-2.843
			c0.604-0.712,1.407-1.068,2.411-1.068c0.994,0,1.718,0.387,2.17,1.159h0.028v-4.428h1.16V98.614z M144.266,95.38v-1.055
			c0-0.577-0.193-1.066-0.579-1.467c-0.387-0.4-0.877-0.601-1.471-0.601c-0.707,0-1.264,0.256-1.669,0.769
			c-0.405,0.512-0.608,1.22-0.608,2.123c0,0.824,0.194,1.476,0.584,1.952c0.389,0.478,0.91,0.716,1.565,0.716
			c0.646,0,1.171-0.23,1.573-0.691C144.065,96.665,144.266,96.083,144.266,95.38z"/>
		<path fill="#726161" d="M161.112,98.195c-0.749,0.391-1.683,0.586-2.8,0.586c-1.442,0-2.597-0.458-3.464-1.376
			c-0.867-0.917-1.301-2.121-1.301-3.61c0-1.603,0.487-2.896,1.463-3.884s2.213-1.481,3.712-1.481c0.962,0,1.759,0.138,2.39,0.412
			v1.251c-0.726-0.4-1.526-0.601-2.403-0.601c-1.164,0-2.108,0.384-2.832,1.152s-1.085,1.795-1.085,3.08
			c0,1.22,0.338,2.192,1.015,2.916c0.676,0.725,1.563,1.086,2.662,1.086c1.018,0,1.899-0.223,2.644-0.67V98.195z"/>
		<path fill="#726161" d="M167.207,98.781c-1.07,0-1.925-0.334-2.563-1.002s-0.958-1.554-0.958-2.658
			c0-1.201,0.332-2.14,0.997-2.814c0.664-0.675,1.563-1.013,2.693-1.013c1.08,0,1.922,0.328,2.528,0.984
			c0.605,0.657,0.908,1.567,0.908,2.731c0,1.141-0.326,2.055-0.979,2.741C169.18,98.438,168.304,98.781,167.207,98.781z
			 M167.291,92.258c-0.744,0-1.334,0.25-1.768,0.751c-0.434,0.5-0.65,1.19-0.65,2.071c0,0.847,0.22,1.516,0.658,2.004
			c0.438,0.489,1.024,0.733,1.76,0.733c0.75,0,1.326-0.239,1.729-0.719c0.402-0.479,0.604-1.162,0.604-2.047
			c0-0.895-0.202-1.583-0.604-2.067C168.617,92.5,168.041,92.258,167.291,92.258z"/>
		<path fill="#726161" d="M184.103,98.614h-1.16v-4.107c0-0.792-0.123-1.364-0.371-1.718c-0.247-0.354-0.663-0.531-1.248-0.531
			c-0.494,0-0.915,0.224-1.262,0.671c-0.347,0.446-0.52,0.982-0.52,1.606v4.079h-1.159v-4.247c0-1.406-0.55-2.109-1.647-2.109
			c-0.51,0-0.929,0.211-1.259,0.632c-0.33,0.422-0.495,0.97-0.495,1.646v4.079h-1.159v-7.152h1.159v1.131h0.028
			c0.514-0.866,1.264-1.299,2.248-1.299c0.495,0,0.927,0.136,1.294,0.408c0.368,0.272,0.62,0.63,0.757,1.072
			c0.537-0.987,1.339-1.48,2.404-1.48c1.593,0,2.39,0.971,2.39,2.913V98.614z"/>
		<path fill="#726161" d="M188.641,97.58h-0.028v4.324h-1.159V91.462h1.159v1.257h0.028c0.57-0.95,1.404-1.425,2.503-1.425
			c0.934,0,1.662,0.32,2.185,0.96c0.523,0.641,0.785,1.499,0.785,2.574c0,1.197-0.295,2.155-0.884,2.874
			c-0.589,0.72-1.396,1.079-2.418,1.079C189.874,98.781,189.15,98.381,188.641,97.58z M188.613,94.695v0.999
			c0,0.592,0.194,1.093,0.584,1.505c0.389,0.412,0.882,0.618,1.48,0.618c0.702,0,1.253-0.265,1.651-0.796s0.598-1.269,0.598-2.214
			c0-0.797-0.187-1.421-0.559-1.872c-0.373-0.452-0.877-0.678-1.514-0.678c-0.674,0-1.216,0.231-1.626,0.695
			C188.818,93.416,188.613,93.997,188.613,94.695z"/>
		<path fill="#726161" d="M202.979,98.614h-1.16v-1.132h-0.028c-0.48,0.866-1.226,1.299-2.234,1.299
			c-1.725,0-2.587-1.015-2.587-3.045v-4.274h1.152v4.093c0,1.509,0.584,2.263,1.753,2.263c0.565,0,1.031-0.206,1.396-0.618
			s0.548-0.95,0.548-1.616v-4.121h1.16V98.614z"/>
		<path fill="#726161" d="M209.835,98.544c-0.273,0.149-0.634,0.224-1.082,0.224c-1.268,0-1.901-0.698-1.901-2.096v-4.232h-1.245
			v-0.978h1.245v-1.747l1.159-0.37v2.117h1.824v0.978h-1.824v4.03c0,0.479,0.082,0.822,0.247,1.026
			c0.165,0.205,0.438,0.308,0.82,0.308c0.292,0,0.545-0.079,0.757-0.237V98.544z"/>
		<path fill="#726161" d="M213.136,89.646c-0.207,0-0.384-0.07-0.53-0.21s-0.219-0.316-0.219-0.53c0-0.215,0.072-0.393,0.219-0.534
			c0.146-0.143,0.323-0.214,0.53-0.214c0.212,0,0.393,0.071,0.541,0.214c0.148,0.142,0.223,0.319,0.223,0.534
			c0,0.205-0.074,0.379-0.223,0.523S213.348,89.646,213.136,89.646z M213.702,98.614h-1.159v-7.152h1.159V98.614z"/>
		<path fill="#726161" d="M223.217,98.614h-1.16v-4.079c0-1.519-0.561-2.277-1.683-2.277c-0.579,0-1.06,0.216-1.438,0.646
			c-0.38,0.431-0.569,0.974-0.569,1.631v4.079h-1.159v-7.152h1.159v1.188h0.028c0.547-0.904,1.339-1.355,2.376-1.355
			c0.792,0,1.397,0.253,1.816,0.758c0.42,0.505,0.63,1.235,0.63,2.189V98.614z"/>
		<path fill="#726161" d="M232.741,98.041c0,2.627-1.273,3.939-3.818,3.939c-0.896,0-1.678-0.167-2.348-0.503v-1.146
			c0.815,0.447,1.594,0.671,2.334,0.671c1.781,0,2.672-0.937,2.672-2.808v-0.782h-0.028c-0.551,0.912-1.381,1.368-2.488,1.368
			c-0.9,0-1.625-0.317-2.174-0.953c-0.55-0.636-0.824-1.489-0.824-2.56c0-1.216,0.296-2.182,0.888-2.899
			c0.591-0.717,1.4-1.075,2.429-1.075c0.976,0,1.699,0.387,2.17,1.159h0.028v-0.991h1.16V98.041z M231.581,95.38v-1.055
			c0-0.568-0.194-1.055-0.583-1.46s-0.873-0.607-1.453-0.607c-0.717,0-1.277,0.257-1.683,0.771s-0.608,1.235-0.608,2.162
			c0,0.796,0.194,1.434,0.584,1.91c0.389,0.478,0.903,0.716,1.545,0.716c0.65,0,1.179-0.228,1.587-0.685
			C231.376,96.677,231.581,96.093,231.581,95.38z"/>
	</g>
</g>
</svg>
